PathFileType	4	(X/Y/Z)	C:/Users/beibeiliu/ov580/test_trc/User1\sequence.10_training_dense_left.trc
DataRate	CameraRate	NumFrames	NumMarkers	Units	OrigDataRate	OrigDataStartFrame	OrigNumFrames
120	120	8	19	mm	120	1	41
Frame#	Time	ThumbCMC			ThumbMCP			ThumbIP			ThumbTip			IndexMCP			IndexPIP			IndexTip			MiddleMCP			MiddlePIP			MiddleTip			RingMCP			RingPIP			RingTip			PinkyMCP			PinkyPIP			PinkyTip			BackHand1			BackHand2			BackHand3	
		X0	Y0	Z0	X1	Y1	Z1	X2	Y2	Z2	X3	Y3	Z3	X4	Y4	Z4	X5	Y5	Z5	X6	Y6	Z6	X7	Y7	Z7	X8	Y8	Z8	X9	Y9	Z9	X10	Y10	Z10	X11	Y11	Z11	X12	Y12	Z12	X13	Y13	Z13	X14	Y14	Z14	X15	Y15	Z15	X16	Y16	Z16	X17	Y17	Z17	X18	Y18	Z18	
0	0	-121.629	39.0893	126.074	-98.2695	28.8294	104.255	-82.2078	25.3303	79.6721	-72.8957	15.0395	54.3798	-141.104	52.1269	39.9807	-136.996	48.3775	13.5706	-134.641	38.791	-17.4328	-167.237	46.5344	30.7144	-167.167	42.0278	1.35804	-166.657	30.7706	-28.3285	-186.136	33.0235	33.7477	-187.944	29.4877	9.25644	-187.098	18.9115	-16.0093	-207.085	11.0405	52.1845	-210.545	6.64379	34.6792	-211.275	5.62139	6.94527	-189.892	40.4567	91.958	-193.303	38.4183	130.738	-160.592	53.923	111.743	
1	0.00833333	-126.415	41.0218	125.306	-101.553	34.4841	102.898	-92.3497	30.9063	77.695	-80.8813	22.4033	51.8583	-145.494	61.1159	42.1513	-142.187	59.4376	12.7039	-139.058	51.1355	-15.5796	-168.388	53.3014	30.2404	-164.724	46.2768	3.41841	-154.778	21.0108	-22.567	-190.511	35.8767	35.7681	-181.892	29.1427	7.41432	-169.737	5.39845	-14.9726	-204.107	15.5933	54.3623	-204.274	5.53891	25.1388	-194.332	-1.79699	3.67342	-194.945	39.7918	96.7843	-196.226	39.323	129.791	-163.754	56.1417	113.051	
2	0.0166667	-129.586	42.9512	128.391	-106.985	36.5517	104.785	-93.5604	36.3485	73.6366	-87.8599	28.1459	54.0794	-143.886	71.8665	43.0733	-144.987	69.719	18.7018	-137.922	66.646	-7.86229	-168.521	54.765	33.9045	-155.027	41.3842	5.34738	-135.071	12.2547	-2.82567	-182.113	38.2784	37.094	-166.741	18.9083	8.57697	-149.935	-7.03734	6.66098	-201.471	16.2453	50.1046	-190.587	3.48388	25.6773	-165.992	-7.49247	16.314	-198.155	41.4923	96.4563	-197.93	37.6645	129.721	-169.167	57.1115	117.794	
3	0.025	-127.745	47.7289	124.441	-109.228	37.7741	99.8512	-98.0388	36.4369	72.9401	-90.6339	28.5589	51.6257	-146.652	75.2494	45.2076	-141.521	78.6657	18.0338	-142.12	71.1588	-5.30222	-161.1	54.3075	35.4045	-141.47	31.245	12.364	-123.888	2.06078	25.8508	-172.845	33.8234	34.4059	-152.595	9.32548	19.8928	-135.751	-9.59154	32.6084	-191.199	17.7718	49.6636	-172.015	3.04854	30.2214	-145.081	-10.2295	37.3309	-195.951	43.1284	92.4915	-201.98	36.043	127.089	-169.587	60.859	115.945	
4	0.0333333	-130.648	44.4643	126.366	-107.173	37.166	96.0778	-96.0249	33.716	70.9857	-93.0201	24.1325	44.9893	-142.801	78.4367	48.6029	-141.08	79.2378	23.0815	-136.859	77.4219	-3.96689	-150.977	49.8478	31.0548	-128.946	22.7782	24.3627	-118.141	1.75936	48.8208	-168.545	25.3695	36.7398	-140.31	2.07483	34.0752	-131.078	-12.5358	61.393	-185.914	10.1046	46.0028	-160.691	-0.395942	40.0354	-138.229	-8.73704	62.4154	-196.113	44.7496	91.1153	-196.667	40.2121	125.594	-168.785	60.4106	114.968	
5	0.0416667	-128.356	45.3636	122.995	-105.401	35.5662	97.5315	-98.1934	30.6919	67.5254	-95.583	17.9508	43.6832	-137.346	76.2216	48.9382	-136.859	73.9628	18.3352	-131.431	73.311	-4.122	-146.499	40.7322	34.0566	-123.103	16.1134	33.378	-120.3	0.569435	68.1776	-161.014	19.057	40.0163	-135.519	-5.27685	48.4416	-131.834	-11.0871	77.3574	-177.212	7.69958	47.3444	-153.175	-5.40646	50.187	-140.726	-5.74809	80.8976	-190.826	44.8122	92.5833	-196.767	37.5035	124.873	-164.083	61.162	115.969	
6	0.05	-127.352	51.1545	126.154	-100.394	42.0932	101.568	-93.9842	32.8442	77.5165	-92.3896	19.5407	52.7714	-135.873	70.0803	42.05	-128.361	70.0116	22.5318	-125.11	64.8499	-4.40575	-137.353	33.9358	36.5372	-112.988	14.1866	42.4763	-114.738	7.13778	83.852	-148.616	17.4215	45.1843	-124.779	-4.92075	59.3956	-125.399	-1.81202	95.3539	-165.414	-2.38602	51.4056	-139.35	-10.8527	67.1843	-138.118	0.534519	95.4518	-185.979	38.816	89.5096	-197.619	32.9224	122.646	-169.133	59.4872	114.02	
7	0.0583333	-139.83	66.7761	129.585	-107.086	65.6841	108.407	-91.4433	57.9662	79.7791	-82.7595	38.4768	61.1225	-138.394	70.0007	39.0112	-125.818	68.0722	15.6148	-119.794	59.757	-5.13796	-126.126	36.2987	40.1936	-99.5676	24.4439	54.1522	-109.871	29.8623	95.0905	-131.731	16.1831	50.33	-108.231	4.20557	73.8153	-118.736	11.9212	103.221	-140.4	-6.83854	58.5606	-120.824	-2.99134	77.8736	-134.825	14.2079	105.543	-185.094	24.98	83.8801	-196.277	25.1468	115.65	-176.797	61.2071	106.524	
